<?xml version="1.0" encoding="UTF-8" standalone="no" ?>
<!DOCTYPE svg PUBLIC "-//W3C//DTD SVG 1.1//EN" "http://www.w3.org/Graphics/SVG/1.1/DTD/svg11.dtd">
<svg xmlns="http://www.w3.org/2000/svg" xmlns:xlink="http://www.w3.org/1999/xlink" version="1.1" width="100" height="100" viewBox="0 0 100 100" xml:space="preserve">
<!-- Created with SVG Stack Editor - https://svgstack.com -->
<defs>
</defs>
<rect x="0" y="0" width="100%" height="100%" fill="transparent"></rect>
<g transform="matrix(0.01 0 0 0.01 50 50)"  >
<g style=""   >
		<g transform="matrix(1 0 0 1 0 0)" id="path_0"  >
<path style="stroke: none; stroke-width: 1; stroke-dasharray: none; stroke-linecap: butt; stroke-dashoffset: 0; stroke-linejoin: miter; stroke-miterlimit: 4; fill: rgb(0,0,0); fill-rule: nonzero; opacity: 1;"  transform=" translate(-4960.65, -2834.65)" d="M 1539.928 1369.145 C 730.5720000000001 1369.145 74.42800000000011 2025.271 74.42800000000011 2834.627 C 74.42800000000011 3644.0699999999997 730.5720000000001 4300.162 1539.928 4300.162 C 2349.32 4300.162 3005.428 3644.0710000000004 3005.428 2834.6270000000004 C 3005.428 2025.3230000000003 2349.354 1369.2150000000004 1539.9099999999999 1369.2150000000004 L 1539.9279999999999 1369.1450000000004 z M 2211.9970000000003 3482.791 C 2185.677 3525.964 2129.4320000000002 3539.491 2086.3990000000003 3513.188 C 1742.2620000000004 3302.856 1309.1020000000003 3255.343 798.9780000000003 3371.876 C 749.8210000000003 3383.1470000000004 700.8210000000003 3352.329 689.6220000000003 3303.188 C 678.3690000000003 3254.031 709.0460000000003 3205.031 758.3260000000002 3193.8320000000003 C 1316.5750000000003 3066.204 1795.4270000000004 3121.137 2181.704 3357.1760000000004 C 2224.7540000000004 3383.6020000000003 2238.4030000000002 3439.7770000000005 2211.9790000000003 3482.8260000000005 L 2211.9970000000003 3482.7910000000006 z M 2391.371 3083.8100000000004 C 2358.226 3137.5870000000004 2287.911 3154.4570000000003 2234.204 3121.434 C 1840.3670000000002 2879.34 1239.8200000000002 2809.217 773.8840000000002 2950.6530000000002 C 713.4560000000002 2968.905 649.6340000000002 2934.8500000000004 631.2940000000002 2874.5280000000002 C 613.0940000000002 2814.1000000000004 647.1670000000003 2750.4 707.4890000000003 2732.025 C 1239.7160000000003 2570.536 1901.3540000000003 2648.76 2353.728 2926.748 C 2407.454 2959.823 2424.428 3030.1730000000002 2391.353 3083.827 L 2391.371 3083.8100000000004 z M 2406.771 2668.2900000000004 C 1934.3760000000002 2387.7480000000005 1155.1720000000003 2361.9530000000004 704.2150000000001 2498.8200000000006 C 631.8010000000002 2520.7820000000006 555.2210000000001 2479.9020000000005 533.2760000000002 2407.4870000000005 C 511.3310000000002 2335.0380000000005 552.1760000000002 2258.5100000000007 624.6430000000001 2236.4950000000003 C 1142.3100000000002 2079.3460000000005 2002.8720000000003 2109.7080000000005 2546.665 2432.53 C 2611.8 2471.1870000000004 2633.168 2555.309 2594.562 2620.357 C 2556.062 2685.492 2471.712 2706.964 2406.788 2668.29 L 2406.771 2668.29 z M 4061.569 2722.05 C 3808.536 2661.71 3763.491 2619.3610000000003 3763.491 2530.3720000000003 C 3763.491 2446.3030000000003 3842.643 2389.726 3960.348 2389.726 C 4074.448 2389.726 4187.585 2432.688 4306.2 2521.1330000000003 C 4309.788 2523.811 4314.286 2524.8770000000004 4318.713 2524.1780000000003 C 4323.141 2523.5130000000004 4327.061 2521.0800000000004 4329.651 2517.4230000000002 L 4453.201 2343.2630000000004 C 4458.276 2336.088 4456.893 2326.2010000000005 4450.051 2320.7230000000004 C 4308.879000000001 2207.4460000000004 4149.909000000001 2152.3730000000005 3964.0950000000003 2152.3730000000005 C 3690.885 2152.3730000000005 3500.0480000000002 2316.3300000000004 3500.0480000000002 2550.9180000000006 C 3500.0480000000002 2802.4800000000005 3664.67 2891.5550000000007 3949.15 2960.312000000001 C 4191.28 3016.0840000000007 4232.143 3062.810000000001 4232.143 3146.337000000001 C 4232.143 3238.8940000000007 4149.507 3296.434000000001 4016.525 3296.434000000001 C 3868.826 3296.434000000001 3748.356 3246.682000000001 3613.588 3129.974000000001 C 3610.246 3127.086000000001 3605.6600000000003 3125.775000000001 3601.4260000000004 3126.020000000001 C 3596.963 3126.387000000001 3592.885 3128.4520000000007 3590.0510000000004 3131.8650000000007 L 3451.521 3296.732000000001 C 3445.7110000000002 3303.574000000001 3446.4460000000004 3313.794000000001 3453.1670000000004 3319.710000000001 C 3609.9660000000003 3459.692000000001 3802.8150000000005 3533.630000000001 4010.9260000000004 3533.630000000001 C 4305.327 3533.630000000001 4495.570000000001 3372.770000000001 4495.570000000001 3123.798000000001 C 4496.095 2913.623000000001 4370.271000000001 2797.248000000001 4062.0960000000005 2722.278000000001 L 4061.5690000000004 2722.050000000001 z M 5161.617 2472.5 C 5034.008 2472.5 4929.34 2522.76 4843.030000000001 2625.747 L 4843.030000000001 2509.8269999999998 C 4843.030000000001 2500.6749999999997 4835.610000000001 2493.22 4826.475 2493.22 L 4599.903 2493.22 C 4590.751 2493.22 4583.348 2500.6749999999997 4583.348 2509.8269999999998 L 4583.348 3797.86 C 4583.348 3807.012 4590.75 3814.467 4599.903 3814.467 L 4826.475 3814.467 C 4835.610000000001 3814.467 4843.030000000001 3807.013 4843.030000000001 3797.86 L 4843.030000000001 3391.2830000000004 C 4929.358000000001 3488.1630000000005 5034.043000000001 3535.501 5161.617 3535.501 C 5398.724 3535.501 5638.755 3352.9770000000003 5638.755 3004.0620000000004 C 5639.1050000000005 2655.0600000000004 5399.005 2472.483 5161.88 2472.483 L 5161.617 2472.5 z M 5375.292 3004.062 C 5375.292 3181.74 5265.847000000001 3305.727 5109.134 3305.727 C 4954.208 3305.727 4837.343 3176.104 4837.343 3004.062 C 4837.343 2832.038 4954.208 2702.398 5109.134 2702.398 C 5263.31 2702.38 5375.31 2829.2200000000003 5375.31 3004.0440000000003 L 5375.292 3004.0620000000004 z M 6253.966 2472.5 C 5948.609 2472.5 5709.384 2707.63 5709.384 3007.859 C 5709.384 3304.816 5946.964 3537.478 6250.221 3537.478 C 6556.663 3537.478 6796.621999999999 3303.136 6796.621999999999 3004.061 C 6796.621999999999 2706.0190000000002 6558.271999999999 2472.5350000000003 6253.947999999999 2472.5350000000003 L 6253.965999999999 2472.5000000000005 z M 6253.966 3307.494 C 6091.548000000001 3307.494 5969.101000000001 3176.996 5969.101000000001 3003.974 C 5969.101000000001 2830.2160000000003 6087.314 2704.129 6250.22 2704.129 C 6413.688 2704.129 6536.957 2834.6259999999997 6536.957 3007.7709999999997 C 6536.957 3181.4939999999997 6417.9580000000005 3307.4939999999997 6253.982 3307.4939999999997 L 6253.966 3307.4939999999997 z M 7448.688 2493.221 L 7199.366 2493.221 L 7199.366 2238.316 C 7199.366 2229.1809999999996 7191.981 2221.7259999999997 7182.829 2221.7259999999997 L 6956.2919999999995 2221.7259999999997 C 6947.121999999999 2221.7259999999997 6939.6849999999995 2229.1809999999996 6939.6849999999995 2238.316 L 6939.6849999999995 2493.221 L 6830.746999999999 2493.221 C 6821.629999999999 2493.221 6814.244 2500.675 6814.244 2509.828 L 6814.244 2704.55 C 6814.244 2713.6850000000004 6821.63 2721.157 6830.746999999999 2721.157 L 6939.6849999999995 2721.157 L 6939.6849999999995 3224.9990000000003 C 6939.6849999999995 3428.6110000000003 7041.026999999999 3531.844 7240.893999999999 3531.844 C 7322.164999999999 3531.844 7389.590999999999 3515.061 7453.133999999999 3479.029 C 7458.295999999999 3476.141 7461.497999999999 3470.5769999999998 7461.497999999999 3464.662 L 7461.497999999999 3279.232 C 7461.497999999999 3273.509 7458.521999999999 3268.102 7453.622999999999 3265.11 C 7448.687999999998 3262.012 7442.5459999999985 3261.855 7437.4879999999985 3264.357 C 7393.841999999999 3286.32 7351.650999999998 3296.4519999999998 7304.4879999999985 3296.4519999999998 C 7231.793999999998 3296.4519999999998 7199.365999999998 3263.4469999999997 7199.365999999998 3189.475 L 7199.365999999998 2721.246 L 7448.687999999998 2721.246 C 7457.839999999998 2721.246 7465.207999999999 2713.791 7465.207999999999 2704.639 L 7465.207999999999 2509.934 C 7465.557999999999 2500.782 7458.207999999999 2493.327 7448.933999999998 2493.327 L 7448.687999999998 2493.221 z M 8317.388 2494.218 L 8317.388 2462.91 C 8317.388 2370.807 8352.702000000001 2329.7349999999997 8431.908000000001 2329.7349999999997 C 8479.140000000001 2329.7349999999997 8517.081000000002 2339.115 8559.570000000002 2353.2899999999995 C 8564.803000000002 2354.9359999999997 8570.262 2354.1129999999994 8574.515000000001 2350.9799999999996 C 8578.890000000001 2347.8469999999998 8581.358000000002 2342.8249999999994 8581.358000000002 2337.5049999999997 L 8581.358000000002 2146.58 C 8581.358000000002 2139.282 8576.668000000001 2132.825 8569.632000000001 2130.672 C 8524.744 2117.319 8467.310000000001 2103.617 8381.316 2103.617 C 8172.050000000001 2103.617 8061.433000000001 2221.462 8061.433000000001 2444.289 L 8061.433000000001 2492.239 L 7952.5830000000005 2492.239 C 7943.448 2492.239 7935.9580000000005 2499.694 7935.9580000000005 2508.829 L 7935.9580000000005 2704.549 C 7935.9580000000005 2713.684 7943.448 2721.156 7952.5830000000005 2721.156 L 8061.433000000001 2721.156 L 8061.433000000001 3498.312 C 8061.433000000001 3507.464 8068.818000000001 3514.919 8077.954000000001 3514.919 L 8304.526 3514.919 C 8313.678 3514.919 8321.133 3507.464 8321.133 3498.312 L 8321.133 2721.21 L 8532.673 2721.21 L 8856.720000000001 3498.174 C 8819.935000000001 3579.811 8783.761 3596.051 8734.378 3596.051 C 8694.460000000001 3596.051 8652.425000000001 3584.133 8609.444000000001 3560.613 C 8605.402000000002 3558.39 8600.607000000002 3558.0229999999997 8596.250000000002 3559.3709999999996 C 8591.927000000001 3560.8929999999996 8588.288000000002 3564.113 8586.450000000003 3568.3129999999996 L 8509.660000000002 3736.785 C 8506.002000000002 3744.748 8509.135000000002 3754.094 8516.800000000001 3758.223 C 8596.967 3801.64 8669.331000000002 3820.172 8758.773000000001 3820.172 C 8926.072000000002 3820.172 9018.543000000001 3742.245 9100.058 3532.5950000000003 L 9493.124000000002 2516.8970000000004 C 9495.101000000002 2511.7870000000003 9494.507000000001 2506.012 9491.374000000002 2501.4800000000005 C 9488.261000000002 2496.9820000000004 9483.237000000001 2494.2700000000004 9477.741000000002 2494.2700000000004 L 9241.876000000002 2494.2700000000004 C 9234.808000000003 2494.2700000000004 9228.487000000003 2498.7670000000003 9226.179000000002 2505.4000000000005 L 8984.558000000003 3195.5640000000003 L 8719.906000000003 2504.945 C 8717.492000000002 2498.5220000000004 8711.297000000002 2494.2690000000002 8704.437000000004 2494.2690000000002 L 8317.336000000003 2494.2690000000002 L 8317.388000000003 2494.2180000000003 z M 7813.738 2493.221 L 7587.166 2493.221 C 7578.013 2493.221 7570.559 2500.675 7570.559 2509.828 L 7570.559 3498.313 C 7570.559 3507.465 7578.013 3514.92 7587.166 3514.92 L 7813.738 3514.92 C 7822.8730000000005 3514.92 7830.345 3507.465 7830.345 3498.313 L 7830.345 2509.897 C 7830.354874274843 2505.4862346449863 7828.605772788632 2501.253555330491 7825.48510025602 2498.136449066262 C 7822.364427723409 2495.0193428020325 7818.1297511809125 2493.2750822799617 7813.719 2493.29 L 7813.738 2493.221 z M 7701.738 2043.139 C 7611.981000000001 2043.139 7539.146000000001 2115.798 7539.146000000001 2205.556 C 7539.146000000001 2295.366 7611.999000000001 2368.114 7701.7390000000005 2368.114 C 7791.462 2368.114 7864.225 2295.366 7864.225 2205.556 C 7864.225 2115.8160000000003 7791.426 2043.1390000000001 7701.827 2043.1390000000001 L 7701.738 2043.1390000000001 z M 9686.585 2811.037 C 9596.914999999999 2811.037 9527.143999999998 2739.024 9527.143999999998 2651.5769999999998 C 9527.143999999998 2564.1299999999997 9597.826 2491.2949999999996 9687.425 2491.2949999999996 C 9777.097 2491.2949999999996 9846.867999999999 2563.2899999999995 9846.867999999999 2650.6669999999995 C 9846.867999999999 2738.1149999999993 9776.167 2811.0369999999994 9686.568999999998 2811.0369999999994 L 9686.584999999997 2811.0369999999994 z M 9687.46 2507.1499999999996 C 9605.787999999999 2507.1499999999996 9543.994999999999 2572.075 9543.994999999999 2651.5769999999998 C 9543.994999999999 2731.0449999999996 9605.349999999999 2795.095 9686.637999999999 2795.095 C 9768.292 2795.095 9830.155999999999 2730.223 9830.155999999999 2650.667 C 9830.155999999999 2571.2 9768.73 2507.15 9687.530999999999 2507.15 L 9687.46 2507.15 z M 9722.812 2667.0639999999994 L 9767.91 2730.2049999999995 L 9729.883 2730.2049999999995 L 9689.280999999999 2672.2799999999993 L 9654.371 2672.2799999999993 L 9654.371 2730.2049999999995 L 9622.538999999999 2730.2049999999995 L 9622.538999999999 2562.8349999999996 L 9697.176 2562.8349999999996 C 9736.061 2562.8349999999996 9761.628999999999 2582.7319999999995 9761.628999999999 2616.2279999999996 C 9761.803 2643.6679999999997 9745.878999999999 2660.4329999999995 9722.953 2667.0649999999996 L 9722.812 2667.0649999999996 z M 9695.862 2591.5529999999994 L 9654.349999999999 2591.5529999999994 L 9654.349999999999 2644.4909999999995 L 9695.862 2644.4909999999995 C 9716.580999999998 2644.4909999999995 9728.952 2634.3579999999997 9728.952 2617.9959999999996 C 9728.952 2600.776 9716.527999999998 2591.5539999999996 9695.877999999999 2591.5539999999996 L 9695.862 2591.5539999999996 z" stroke-linecap="round" />
</g>
</g>
</g>
<g transform="matrix(0.01 0 0 0.01 50 50)"  >
<g style=""   >
		<g transform="matrix(1 0 0 1 0 0)" id="path_0"  >
<path style="stroke: none; stroke-width: 1; stroke-dasharray: none; stroke-linecap: butt; stroke-dashoffset: 0; stroke-linejoin: miter; stroke-miterlimit: 4; fill: rgb(0,0,0); fill-rule: nonzero; opacity: 1;"  transform=" translate(-4960.65, -2834.65)" d="M 1539.928 1369.145 C 730.5720000000001 1369.145 74.42800000000011 2025.271 74.42800000000011 2834.627 C 74.42800000000011 3644.0699999999997 730.5720000000001 4300.162 1539.928 4300.162 C 2349.32 4300.162 3005.428 3644.0710000000004 3005.428 2834.6270000000004 C 3005.428 2025.3230000000003 2349.354 1369.2150000000004 1539.9099999999999 1369.2150000000004 L 1539.9279999999999 1369.1450000000004 z M 2211.9970000000003 3482.791 C 2185.677 3525.964 2129.4320000000002 3539.491 2086.3990000000003 3513.188 C 1742.2620000000004 3302.856 1309.1020000000003 3255.343 798.9780000000003 3371.876 C 749.8210000000003 3383.1470000000004 700.8210000000003 3352.329 689.6220000000003 3303.188 C 678.3690000000003 3254.031 709.0460000000003 3205.031 758.3260000000002 3193.8320000000003 C 1316.5750000000003 3066.204 1795.4270000000004 3121.137 2181.704 3357.1760000000004 C 2224.7540000000004 3383.6020000000003 2238.4030000000002 3439.7770000000005 2211.9790000000003 3482.8260000000005 L 2211.9970000000003 3482.7910000000006 z M 2391.371 3083.8100000000004 C 2358.226 3137.5870000000004 2287.911 3154.4570000000003 2234.204 3121.434 C 1840.3670000000002 2879.34 1239.8200000000002 2809.217 773.8840000000002 2950.6530000000002 C 713.4560000000002 2968.905 649.6340000000002 2934.8500000000004 631.2940000000002 2874.5280000000002 C 613.0940000000002 2814.1000000000004 647.1670000000003 2750.4 707.4890000000003 2732.025 C 1239.7160000000003 2570.536 1901.3540000000003 2648.76 2353.728 2926.748 C 2407.454 2959.823 2424.428 3030.1730000000002 2391.353 3083.827 L 2391.371 3083.8100000000004 z M 2406.771 2668.2900000000004 C 1934.3760000000002 2387.7480000000005 1155.1720000000003 2361.9530000000004 704.2150000000001 2498.8200000000006 C 631.8010000000002 2520.7820000000006 555.2210000000001 2479.9020000000005 533.2760000000002 2407.4870000000005 C 511.3310000000002 2335.0380000000005 552.1760000000002 2258.5100000000007 624.6430000000001 2236.4950000000003 C 1142.3100000000002 2079.3460000000005 2002.8720000000003 2109.7080000000005 2546.665 2432.53 C 2611.8 2471.1870000000004 2633.168 2555.309 2594.562 2620.357 C 2556.062 2685.492 2471.712 2706.964 2406.788 2668.29 L 2406.771 2668.29 z M 4061.569 2722.05 C 3808.536 2661.71 3763.491 2619.3610000000003 3763.491 2530.3720000000003 C 3763.491 2446.3030000000003 3842.643 2389.726 3960.348 2389.726 C 4074.448 2389.726 4187.585 2432.688 4306.2 2521.1330000000003 C 4309.788 2523.811 4314.286 2524.8770000000004 4318.713 2524.1780000000003 C 4323.141 2523.5130000000004 4327.061 2521.0800000000004 4329.651 2517.4230000000002 L 4453.201 2343.2630000000004 C 4458.276 2336.088 4456.893 2326.2010000000005 4450.051 2320.7230000000004 C 4308.879000000001 2207.4460000000004 4149.909000000001 2152.3730000000005 3964.0950000000003 2152.3730000000005 C 3690.885 2152.3730000000005 3500.0480000000002 2316.3300000000004 3500.0480000000002 2550.9180000000006 C 3500.0480000000002 2802.4800000000005 3664.67 2891.5550000000007 3949.15 2960.312000000001 C 4191.28 3016.0840000000007 4232.143 3062.810000000001 4232.143 3146.337000000001 C 4232.143 3238.8940000000007 4149.507 3296.434000000001 4016.525 3296.434000000001 C 3868.826 3296.434000000001 3748.356 3246.682000000001 3613.588 3129.974000000001 C 3610.246 3127.086000000001 3605.6600000000003 3125.775000000001 3601.4260000000004 3126.020000000001 C 3596.963 3126.387000000001 3592.885 3128.4520000000007 3590.0510000000004 3131.8650000000007 L 3451.521 3296.732000000001 C 3445.7110000000002 3303.574000000001 3446.4460000000004 3313.794000000001 3453.1670000000004 3319.710000000001 C 3609.9660000000003 3459.692000000001 3802.8150000000005 3533.630000000001 4010.9260000000004 3533.630000000001 C 4305.327 3533.630000000001 4495.570000000001 3372.770000000001 4495.570000000001 3123.798000000001 C 4496.095 2913.623000000001 4370.271000000001 2797.248000000001 4062.0960000000005 2722.278000000001 L 4061.5690000000004 2722.050000000001 z M 5161.617 2472.5 C 5034.008 2472.5 4929.34 2522.76 4843.030000000001 2625.747 L 4843.030000000001 2509.8269999999998 C 4843.030000000001 2500.6749999999997 4835.610000000001 2493.22 4826.475 2493.22 L 4599.903 2493.22 C 4590.751 2493.22 4583.348 2500.6749999999997 4583.348 2509.8269999999998 L 4583.348 3797.86 C 4583.348 3807.012 4590.75 3814.467 4599.903 3814.467 L 4826.475 3814.467 C 4835.610000000001 3814.467 4843.030000000001 3807.013 4843.030000000001 3797.86 L 4843.030000000001 3391.2830000000004 C 4929.358000000001 3488.1630000000005 5034.043000000001 3535.501 5161.617 3535.501 C 5398.724 3535.501 5638.755 3352.9770000000003 5638.755 3004.0620000000004 C 5639.1050000000005 2655.0600000000004 5399.005 2472.483 5161.88 2472.483 L 5161.617 2472.5 z M 5375.292 3004.062 C 5375.292 3181.74 5265.847000000001 3305.727 5109.134 3305.727 C 4954.208 3305.727 4837.343 3176.104 4837.343 3004.062 C 4837.343 2832.038 4954.208 2702.398 5109.134 2702.398 C 5263.31 2702.38 5375.31 2829.2200000000003 5375.31 3004.0440000000003 L 5375.292 3004.0620000000004 z M 6253.966 2472.5 C 5948.609 2472.5 5709.384 2707.63 5709.384 3007.859 C 5709.384 3304.816 5946.964 3537.478 6250.221 3537.478 C 6556.663 3537.478 6796.621999999999 3303.136 6796.621999999999 3004.061 C 6796.621999999999 2706.0190000000002 6558.271999999999 2472.5350000000003 6253.947999999999 2472.5350000000003 L 6253.965999999999 2472.5000000000005 z M 6253.966 3307.494 C 6091.548000000001 3307.494 5969.101000000001 3176.996 5969.101000000001 3003.974 C 5969.101000000001 2830.2160000000003 6087.314 2704.129 6250.22 2704.129 C 6413.688 2704.129 6536.957 2834.6259999999997 6536.957 3007.7709999999997 C 6536.957 3181.4939999999997 6417.9580000000005 3307.4939999999997 6253.982 3307.4939999999997 L 6253.966 3307.4939999999997 z M 7448.688 2493.221 L 7199.366 2493.221 L 7199.366 2238.316 C 7199.366 2229.1809999999996 7191.981 2221.7259999999997 7182.829 2221.7259999999997 L 6956.2919999999995 2221.7259999999997 C 6947.121999999999 2221.7259999999997 6939.6849999999995 2229.1809999999996 6939.6849999999995 2238.316 L 6939.6849999999995 2493.221 L 6830.746999999999 2493.221 C 6821.629999999999 2493.221 6814.244 2500.675 6814.244 2509.828 L 6814.244 2704.55 C 6814.244 2713.6850000000004 6821.63 2721.157 6830.746999999999 2721.157 L 6939.6849999999995 2721.157 L 6939.6849999999995 3224.9990000000003 C 6939.6849999999995 3428.6110000000003 7041.026999999999 3531.844 7240.893999999999 3531.844 C 7322.164999999999 3531.844 7389.590999999999 3515.061 7453.133999999999 3479.029 C 7458.295999999999 3476.141 7461.497999999999 3470.5769999999998 7461.497999999999 3464.662 L 7461.497999999999 3279.232 C 7461.497999999999 3273.509 7458.521999999999 3268.102 7453.622999999999 3265.11 C 7448.687999999998 3262.012 7442.5459999999985 3261.855 7437.4879999999985 3264.357 C 7393.841999999999 3286.32 7351.650999999998 3296.4519999999998 7304.4879999999985 3296.4519999999998 C 7231.793999999998 3296.4519999999998 7199.365999999998 3263.4469999999997 7199.365999999998 3189.475 L 7199.365999999998 2721.246 L 7448.687999999998 2721.246 C 7457.839999999998 2721.246 7465.207999999999 2713.791 7465.207999999999 2704.639 L 7465.207999999999 2509.934 C 7465.557999999999 2500.782 7458.207999999999 2493.327 7448.933999999998 2493.327 L 7448.687999999998 2493.221 z M 8317.388 2494.218 L 8317.388 2462.91 C 8317.388 2370.807 8352.702000000001 2329.7349999999997 8431.908000000001 2329.7349999999997 C 8479.140000000001 2329.7349999999997 8517.081000000002 2339.115 8559.570000000002 2353.2899999999995 C 8564.803000000002 2354.9359999999997 8570.262 2354.1129999999994 8574.515000000001 2350.9799999999996 C 8578.890000000001 2347.8469999999998 8581.358000000002 2342.8249999999994 8581.358000000002 2337.5049999999997 L 8581.358000000002 2146.58 C 8581.358000000002 2139.282 8576.668000000001 2132.825 8569.632000000001 2130.672 C 8524.744 2117.319 8467.310000000001 2103.617 8381.316 2103.617 C 8172.050000000001 2103.617 8061.433000000001 2221.462 8061.433000000001 2444.289 L 8061.433000000001 2492.239 L 7952.5830000000005 2492.239 C 7943.448 2492.239 7935.9580000000005 2499.694 7935.9580000000005 2508.829 L 7935.9580000000005 2704.549 C 7935.9580000000005 2713.684 7943.448 2721.156 7952.5830000000005 2721.156 L 8061.433000000001 2721.156 L 8061.433000000001 3498.312 C 8061.433000000001 3507.464 8068.818000000001 3514.919 8077.954000000001 3514.919 L 8304.526 3514.919 C 8313.678 3514.919 8321.133 3507.464 8321.133 3498.312 L 8321.133 2721.21 L 8532.673 2721.21 L 8856.720000000001 3498.174 C 8819.935000000001 3579.811 8783.761 3596.051 8734.378 3596.051 C 8694.460000000001 3596.051 8652.425000000001 3584.133 8609.444000000001 3560.613 C 8605.402000000002 3558.39 8600.607000000002 3558.0229999999997 8596.250000000002 3559.3709999999996 C 8591.927000000001 3560.8929999999996 8588.288000000002 3564.113 8586.450000000003 3568.3129999999996 L 8509.660000000002 3736.785 C 8506.002000000002 3744.748 8509.135000000002 3754.094 8516.800000000001 3758.223 C 8596.967 3801.64 8669.331000000002 3820.172 8758.773000000001 3820.172 C 8926.072000000002 3820.172 9018.543000000001 3742.245 9100.058 3532.5950000000003 L 9493.124000000002 2516.8970000000004 C 9495.101000000002 2511.7870000000003 9494.507000000001 2506.012 9491.374000000002 2501.4800000000005 C 9488.261000000002 2496.9820000000004 9483.237000000001 2494.2700000000004 9477.741000000002 2494.2700000000004 L 9241.876000000002 2494.2700000000004 C 9234.808000000003 2494.2700000000004 9228.487000000003 2498.7670000000003 9226.179000000002 2505.4000000000005 L 8984.558000000003 3195.5640000000003 L 8719.906000000003 2504.945 C 8717.492000000002 2498.5220000000004 8711.297000000002 2494.2690000000002 8704.437000000004 2494.2690000000002 L 8317.336000000003 2494.2690000000002 L 8317.388000000003 2494.2180000000003 z M 7813.738 2493.221 L 7587.166 2493.221 C 7578.013 2493.221 7570.559 2500.675 7570.559 2509.828 L 7570.559 3498.313 C 7570.559 3507.465 7578.013 3514.92 7587.166 3514.92 L 7813.738 3514.92 C 7822.8730000000005 3514.92 7830.345 3507.465 7830.345 3498.313 L 7830.345 2509.897 C 7830.354874274843 2505.4862346449863 7828.605772788632 2501.253555330491 7825.48510025602 2498.136449066262 C 7822.364427723409 2495.0193428020325 7818.1297511809125 2493.2750822799617 7813.719 2493.29 L 7813.738 2493.221 z M 7701.738 2043.139 C 7611.981000000001 2043.139 7539.146000000001 2115.798 7539.146000000001 2205.556 C 7539.146000000001 2295.366 7611.999000000001 2368.114 7701.7390000000005 2368.114 C 7791.462 2368.114 7864.225 2295.366 7864.225 2205.556 C 7864.225 2115.8160000000003 7791.426 2043.1390000000001 7701.827 2043.1390000000001 L 7701.738 2043.1390000000001 z M 9686.585 2811.037 C 9596.914999999999 2811.037 9527.143999999998 2739.024 9527.143999999998 2651.5769999999998 C 9527.143999999998 2564.1299999999997 9597.826 2491.2949999999996 9687.425 2491.2949999999996 C 9777.097 2491.2949999999996 9846.867999999999 2563.2899999999995 9846.867999999999 2650.6669999999995 C 9846.867999999999 2738.1149999999993 9776.167 2811.0369999999994 9686.568999999998 2811.0369999999994 L 9686.584999999997 2811.0369999999994 z M 9687.46 2507.1499999999996 C 9605.787999999999 2507.1499999999996 9543.994999999999 2572.075 9543.994999999999 2651.5769999999998 C 9543.994999999999 2731.0449999999996 9605.349999999999 2795.095 9686.637999999999 2795.095 C 9768.292 2795.095 9830.155999999999 2730.223 9830.155999999999 2650.667 C 9830.155999999999 2571.2 9768.73 2507.15 9687.530999999999 2507.15 L 9687.46 2507.15 z M 9722.812 2667.0639999999994 L 9767.91 2730.2049999999995 L 9729.883 2730.2049999999995 L 9689.280999999999 2672.2799999999993 L 9654.371 2672.2799999999993 L 9654.371 2730.2049999999995 L 9622.538999999999 2730.2049999999995 L 9622.538999999999 2562.8349999999996 L 9697.176 2562.8349999999996 C 9736.061 2562.8349999999996 9761.628999999999 2582.7319999999995 9761.628999999999 2616.2279999999996 C 9761.803 2643.6679999999997 9745.878999999999 2660.4329999999995 9722.953 2667.0649999999996 L 9722.812 2667.0649999999996 z M 9695.862 2591.5529999999994 L 9654.349999999999 2591.5529999999994 L 9654.349999999999 2644.4909999999995 L 9695.862 2644.4909999999995 C 9716.580999999998 2644.4909999999995 9728.952 2634.3579999999997 9728.952 2617.9959999999996 C 9728.952 2600.776 9716.527999999998 2591.5539999999996 9695.877999999999 2591.5539999999996 L 9695.862 2591.5539999999996 z" stroke-linecap="round" />
</g>
</g>
</g>
</svg>